<svg xmlns="http://www.w3.org/2000/svg" x="0px" y="0px"
     width="18" height="18"
     viewBox="0 0 226 226"
     style=" fill:#000000;"><g fill="none" fill-rule="nonzero" stroke="none" stroke-width="none" stroke-linecap="butt" stroke-linejoin="miter" stroke-miterlimit="10" stroke-dasharray="" stroke-dashoffset="0" font-family="none" font-weight="none" font-size="none" text-anchor="none" style="mix-blend-mode: normal"><path d="M0,226v-226h226v226z" fill="none" stroke="none" stroke-width="1"></path><g><path d="M26.94485,211.875c-7.06815,0 -12.81985,-5.7517 -12.81985,-12.81985v-172.1103c0,-7.06815 5.7517,-12.81985 12.81985,-12.81985h172.1103c7.06815,0 12.81985,5.7517 12.81985,12.81985v172.1103c0,7.06815 -5.7517,12.81985 -12.81985,12.81985z" fill="#ffffff" stroke="none" stroke-width="1"></path><path d="M199.05515,16.95c5.50875,0 9.99485,4.4861 9.99485,9.99485v172.1103c0,5.50875 -4.4861,9.99485 -9.99485,9.99485h-172.1103c-5.50875,0 -9.99485,-4.4861 -9.99485,-9.99485v-172.1103c0,-5.50875 4.4861,-9.99485 9.99485,-9.99485h172.1103M199.05515,11.3h-172.1103c-8.63885,0 -15.64485,7.006 -15.64485,15.64485v172.1103c0,8.63885 7.006,15.64485 15.64485,15.64485h172.1103c8.63885,0 15.64485,-7.006 15.64485,-15.64485v-172.1103c0,-8.63885 -7.006,-15.64485 -15.64485,-15.64485z" fill="#4788c7" stroke="none" stroke-width="1"></path><path d="M62.15,113.29945l33.6966,33.70225l75.82865,-75.823" fill="none" stroke="#4788c7" stroke-width="16.95"></path></g></g></svg>

